<svg width="22" height="24" viewBox="0 0 22 24" fill="none" xmlns="http://www.w3.org/2000/svg">
<path d="M4.33333 1L1 5.4V20.8C1 21.3835 1.23413 21.9431 1.65087 22.3556C2.06762 22.7682 2.63285 23 3.22222 23H18.7778C19.3671 23 19.9324 22.7682 20.3491 22.3556C20.7659 21.9431 21 21.3835 21 20.8V5.4L17.6667 1H4.33333Z" stroke="currentColor" stroke-width="2" stroke-linecap="round" stroke-linejoin="round"/>
<path d="M1 5.39996H21" stroke="currentColor" stroke-width="2" stroke-linecap="round" stroke-linejoin="round"/>
<path d="M15.4448 9.79993C15.4448 10.9669 14.9765 12.086 14.1431 12.9112C13.3096 13.7364 12.1791 14.1999 11.0004 14.1999C9.82161 14.1999 8.69115 13.7364 7.85766 12.9112C7.02416 12.086 6.55591 10.9669 6.55591 9.79993" stroke="currentColor" stroke-width="2" stroke-linecap="round" stroke-linejoin="round"/>
</svg>
